<mxfile host="app.diagrams.net" agent="Mozilla/5.0 (Windows NT 10.0; Win64; x64) AppleWebKit/537.36 (KHTML, like Gecko) Chrome/139.0.0.0 Safari/537.36" version="28.1.2">
  <diagram name="Página-1" id="Hyhgw2yyWtIlBGuZJnN0">
    <mxGraphModel dx="2253" dy="1980" grid="1" gridSize="10" guides="1" tooltips="1" connect="1" arrows="1" fold="1" page="1" pageScale="1" pageWidth="827" pageHeight="1169" math="0" shadow="0">
      <root>
        <mxCell id="0" />
        <mxCell id="1" parent="0" />
        <mxCell id="qZxP8vvQeVrQ0ccROyGc-16" style="rounded=0;orthogonalLoop=1;jettySize=auto;html=1;exitX=0.5;exitY=1;exitDx=0;exitDy=0;entryX=0;entryY=0.5;entryDx=0;entryDy=0;endArrow=none;endFill=0;" edge="1" parent="1" source="qZxP8vvQeVrQ0ccROyGc-1" target="qZxP8vvQeVrQ0ccROyGc-11">
          <mxGeometry relative="1" as="geometry" />
        </mxCell>
        <mxCell id="qZxP8vvQeVrQ0ccROyGc-23" style="rounded=0;orthogonalLoop=1;jettySize=auto;html=1;exitX=0;exitY=0.5;exitDx=0;exitDy=0;entryX=1;entryY=0.5;entryDx=0;entryDy=0;endArrow=none;endFill=0;" edge="1" parent="1" source="qZxP8vvQeVrQ0ccROyGc-1" target="qZxP8vvQeVrQ0ccROyGc-21">
          <mxGeometry relative="1" as="geometry" />
        </mxCell>
        <mxCell id="qZxP8vvQeVrQ0ccROyGc-72" value="&lt;b&gt;&lt;font style=&quot;font-size: 16px;&quot;&gt;1:1&lt;/font&gt;&lt;/b&gt;" style="edgeLabel;html=1;align=center;verticalAlign=middle;resizable=0;points=[];" vertex="1" connectable="0" parent="qZxP8vvQeVrQ0ccROyGc-23">
          <mxGeometry x="-0.0667" y="1" relative="1" as="geometry">
            <mxPoint as="offset" />
          </mxGeometry>
        </mxCell>
        <mxCell id="qZxP8vvQeVrQ0ccROyGc-54" style="rounded=0;orthogonalLoop=1;jettySize=auto;html=1;exitX=0.75;exitY=1;exitDx=0;exitDy=0;entryX=0.5;entryY=0;entryDx=0;entryDy=0;endArrow=none;endFill=0;" edge="1" parent="1" source="qZxP8vvQeVrQ0ccROyGc-1" target="qZxP8vvQeVrQ0ccROyGc-51">
          <mxGeometry relative="1" as="geometry" />
        </mxCell>
        <mxCell id="qZxP8vvQeVrQ0ccROyGc-55" style="rounded=0;orthogonalLoop=1;jettySize=auto;html=1;exitX=0.75;exitY=0;exitDx=0;exitDy=0;entryX=0.5;entryY=1;entryDx=0;entryDy=0;endArrow=none;endFill=0;" edge="1" parent="1" source="qZxP8vvQeVrQ0ccROyGc-1" target="qZxP8vvQeVrQ0ccROyGc-48">
          <mxGeometry relative="1" as="geometry" />
        </mxCell>
        <mxCell id="qZxP8vvQeVrQ0ccROyGc-66" style="rounded=0;orthogonalLoop=1;jettySize=auto;html=1;exitX=0.25;exitY=0;exitDx=0;exitDy=0;entryX=0.5;entryY=1;entryDx=0;entryDy=0;endArrow=none;endFill=0;" edge="1" parent="1" source="qZxP8vvQeVrQ0ccROyGc-1" target="qZxP8vvQeVrQ0ccROyGc-59">
          <mxGeometry relative="1" as="geometry" />
        </mxCell>
        <mxCell id="qZxP8vvQeVrQ0ccROyGc-1" value="Usuário" style="whiteSpace=wrap;html=1;align=center;" vertex="1" parent="1">
          <mxGeometry x="350" y="100" width="100" height="40" as="geometry" />
        </mxCell>
        <mxCell id="qZxP8vvQeVrQ0ccROyGc-42" style="rounded=0;orthogonalLoop=1;jettySize=auto;html=1;exitX=0.5;exitY=1;exitDx=0;exitDy=0;entryX=0.5;entryY=0;entryDx=0;entryDy=0;endArrow=none;endFill=0;" edge="1" parent="1" source="qZxP8vvQeVrQ0ccROyGc-2" target="qZxP8vvQeVrQ0ccROyGc-40">
          <mxGeometry relative="1" as="geometry" />
        </mxCell>
        <mxCell id="qZxP8vvQeVrQ0ccROyGc-52" style="rounded=0;orthogonalLoop=1;jettySize=auto;html=1;exitX=0.75;exitY=0;exitDx=0;exitDy=0;entryX=0.5;entryY=1;entryDx=0;entryDy=0;endArrow=none;endFill=0;" edge="1" parent="1" source="qZxP8vvQeVrQ0ccROyGc-2" target="qZxP8vvQeVrQ0ccROyGc-45">
          <mxGeometry relative="1" as="geometry" />
        </mxCell>
        <mxCell id="qZxP8vvQeVrQ0ccROyGc-2" value="Conta" style="whiteSpace=wrap;html=1;align=center;" vertex="1" parent="1">
          <mxGeometry x="30" y="100" width="100" height="40" as="geometry" />
        </mxCell>
        <mxCell id="qZxP8vvQeVrQ0ccROyGc-44" style="rounded=0;orthogonalLoop=1;jettySize=auto;html=1;exitX=0.5;exitY=1;exitDx=0;exitDy=0;entryX=0.5;entryY=0;entryDx=0;entryDy=0;endArrow=none;endFill=0;" edge="1" parent="1" source="qZxP8vvQeVrQ0ccROyGc-3" target="qZxP8vvQeVrQ0ccROyGc-41">
          <mxGeometry relative="1" as="geometry" />
        </mxCell>
        <mxCell id="qZxP8vvQeVrQ0ccROyGc-56" style="rounded=0;orthogonalLoop=1;jettySize=auto;html=1;exitX=0.5;exitY=0;exitDx=0;exitDy=0;entryX=0.5;entryY=1;entryDx=0;entryDy=0;endArrow=none;endFill=0;" edge="1" parent="1" source="qZxP8vvQeVrQ0ccROyGc-3" target="qZxP8vvQeVrQ0ccROyGc-47">
          <mxGeometry relative="1" as="geometry" />
        </mxCell>
        <mxCell id="qZxP8vvQeVrQ0ccROyGc-3" value="Suporte" style="whiteSpace=wrap;html=1;align=center;" vertex="1" parent="1">
          <mxGeometry x="680" y="100" width="100" height="40" as="geometry" />
        </mxCell>
        <mxCell id="qZxP8vvQeVrQ0ccROyGc-14" style="rounded=0;orthogonalLoop=1;jettySize=auto;html=1;exitX=0.5;exitY=0;exitDx=0;exitDy=0;entryX=0.5;entryY=1;entryDx=0;entryDy=0;endArrow=none;endFill=0;" edge="1" parent="1" source="qZxP8vvQeVrQ0ccROyGc-4" target="qZxP8vvQeVrQ0ccROyGc-11">
          <mxGeometry relative="1" as="geometry" />
        </mxCell>
        <mxCell id="qZxP8vvQeVrQ0ccROyGc-4" value="Locador" style="whiteSpace=wrap;html=1;align=center;" vertex="1" parent="1">
          <mxGeometry x="70" y="300" width="100" height="40" as="geometry" />
        </mxCell>
        <mxCell id="qZxP8vvQeVrQ0ccROyGc-29" style="rounded=0;orthogonalLoop=1;jettySize=auto;html=1;exitX=0.5;exitY=0;exitDx=0;exitDy=0;entryX=0.5;entryY=1;entryDx=0;entryDy=0;endArrow=none;endFill=0;shape=link;" edge="1" parent="1" source="qZxP8vvQeVrQ0ccROyGc-6" target="qZxP8vvQeVrQ0ccROyGc-20">
          <mxGeometry relative="1" as="geometry" />
        </mxCell>
        <mxCell id="qZxP8vvQeVrQ0ccROyGc-76" value="&lt;b&gt;&lt;font style=&quot;font-size: 16px;&quot;&gt;1:N&lt;/font&gt;&lt;/b&gt;" style="edgeLabel;html=1;align=center;verticalAlign=middle;resizable=0;points=[];" vertex="1" connectable="0" parent="qZxP8vvQeVrQ0ccROyGc-29">
          <mxGeometry x="-0.1" y="-1" relative="1" as="geometry">
            <mxPoint as="offset" />
          </mxGeometry>
        </mxCell>
        <mxCell id="qZxP8vvQeVrQ0ccROyGc-83" style="rounded=0;orthogonalLoop=1;jettySize=auto;html=1;exitX=0.5;exitY=1;exitDx=0;exitDy=0;entryX=0.5;entryY=0;entryDx=0;entryDy=0;endArrow=none;endFill=0;" edge="1" parent="1" source="qZxP8vvQeVrQ0ccROyGc-6" target="qZxP8vvQeVrQ0ccROyGc-60">
          <mxGeometry relative="1" as="geometry" />
        </mxCell>
        <mxCell id="qZxP8vvQeVrQ0ccROyGc-97" style="rounded=0;orthogonalLoop=1;jettySize=auto;html=1;exitX=0.25;exitY=0;exitDx=0;exitDy=0;entryX=0.5;entryY=1;entryDx=0;entryDy=0;endArrow=none;endFill=0;" edge="1" parent="1" source="qZxP8vvQeVrQ0ccROyGc-6" target="qZxP8vvQeVrQ0ccROyGc-96">
          <mxGeometry relative="1" as="geometry" />
        </mxCell>
        <mxCell id="qZxP8vvQeVrQ0ccROyGc-98" style="rounded=0;orthogonalLoop=1;jettySize=auto;html=1;exitX=0;exitY=0.5;exitDx=0;exitDy=0;entryX=1;entryY=0.5;entryDx=0;entryDy=0;endArrow=none;endFill=0;" edge="1" parent="1" source="qZxP8vvQeVrQ0ccROyGc-6" target="qZxP8vvQeVrQ0ccROyGc-95">
          <mxGeometry relative="1" as="geometry" />
        </mxCell>
        <mxCell id="qZxP8vvQeVrQ0ccROyGc-99" style="rounded=0;orthogonalLoop=1;jettySize=auto;html=1;exitX=0.25;exitY=1;exitDx=0;exitDy=0;entryX=1;entryY=0.5;entryDx=0;entryDy=0;endArrow=none;endFill=0;" edge="1" parent="1" source="qZxP8vvQeVrQ0ccROyGc-6" target="qZxP8vvQeVrQ0ccROyGc-94">
          <mxGeometry relative="1" as="geometry" />
        </mxCell>
        <mxCell id="qZxP8vvQeVrQ0ccROyGc-6" value="Produto" style="whiteSpace=wrap;html=1;align=center;" vertex="1" parent="1">
          <mxGeometry x="70" y="520" width="100" height="40" as="geometry" />
        </mxCell>
        <mxCell id="qZxP8vvQeVrQ0ccROyGc-34" style="rounded=0;orthogonalLoop=1;jettySize=auto;html=1;exitX=1;exitY=0.5;exitDx=0;exitDy=0;entryX=0;entryY=0.5;entryDx=0;entryDy=0;endArrow=none;endFill=0;shape=link;" edge="1" parent="1" source="qZxP8vvQeVrQ0ccROyGc-7" target="qZxP8vvQeVrQ0ccROyGc-37">
          <mxGeometry relative="1" as="geometry">
            <mxPoint x="490" y="470" as="targetPoint" />
          </mxGeometry>
        </mxCell>
        <mxCell id="qZxP8vvQeVrQ0ccROyGc-78" value="&lt;b&gt;&lt;font style=&quot;font-size: 16px;&quot;&gt;1:1&lt;/font&gt;&lt;/b&gt;" style="edgeLabel;html=1;align=center;verticalAlign=middle;resizable=0;points=[];" vertex="1" connectable="0" parent="qZxP8vvQeVrQ0ccROyGc-34">
          <mxGeometry x="0.13" relative="1" as="geometry">
            <mxPoint y="-1" as="offset" />
          </mxGeometry>
        </mxCell>
        <mxCell id="qZxP8vvQeVrQ0ccROyGc-85" style="rounded=0;orthogonalLoop=1;jettySize=auto;html=1;exitX=0.5;exitY=1;exitDx=0;exitDy=0;entryX=0.5;entryY=0;entryDx=0;entryDy=0;endArrow=none;endFill=0;" edge="1" parent="1" source="qZxP8vvQeVrQ0ccROyGc-7" target="qZxP8vvQeVrQ0ccROyGc-84">
          <mxGeometry relative="1" as="geometry" />
        </mxCell>
        <mxCell id="qZxP8vvQeVrQ0ccROyGc-100" style="rounded=0;orthogonalLoop=1;jettySize=auto;html=1;exitX=0.25;exitY=0;exitDx=0;exitDy=0;entryX=0.5;entryY=1;entryDx=0;entryDy=0;endArrow=none;endFill=0;" edge="1" parent="1" source="qZxP8vvQeVrQ0ccROyGc-7" target="qZxP8vvQeVrQ0ccROyGc-89">
          <mxGeometry relative="1" as="geometry" />
        </mxCell>
        <mxCell id="qZxP8vvQeVrQ0ccROyGc-102" style="rounded=0;orthogonalLoop=1;jettySize=auto;html=1;exitX=0;exitY=0.25;exitDx=0;exitDy=0;endArrow=none;endFill=0;" edge="1" parent="1" source="qZxP8vvQeVrQ0ccROyGc-7" target="qZxP8vvQeVrQ0ccROyGc-90">
          <mxGeometry relative="1" as="geometry" />
        </mxCell>
        <mxCell id="qZxP8vvQeVrQ0ccROyGc-7" value="Aluguel" style="whiteSpace=wrap;html=1;align=center;" vertex="1" parent="1">
          <mxGeometry x="350" y="370" width="100" height="40" as="geometry" />
        </mxCell>
        <mxCell id="qZxP8vvQeVrQ0ccROyGc-15" style="rounded=0;orthogonalLoop=1;jettySize=auto;html=1;exitX=0.5;exitY=0;exitDx=0;exitDy=0;entryX=0.5;entryY=0;entryDx=0;entryDy=0;endArrow=none;endFill=0;" edge="1" parent="1" source="qZxP8vvQeVrQ0ccROyGc-8" target="qZxP8vvQeVrQ0ccROyGc-11">
          <mxGeometry relative="1" as="geometry" />
        </mxCell>
        <mxCell id="qZxP8vvQeVrQ0ccROyGc-8" value="Locatário" style="whiteSpace=wrap;html=1;align=center;" vertex="1" parent="1">
          <mxGeometry x="650" y="300" width="100" height="40" as="geometry" />
        </mxCell>
        <mxCell id="qZxP8vvQeVrQ0ccROyGc-11" value="" style="triangle;whiteSpace=wrap;html=1;rotation=90;" vertex="1" parent="1">
          <mxGeometry x="377" y="190" width="46" height="70" as="geometry" />
        </mxCell>
        <mxCell id="qZxP8vvQeVrQ0ccROyGc-12" value="ISA" style="text;html=1;align=center;verticalAlign=middle;resizable=0;points=[];autosize=1;strokeColor=none;fillColor=none;" vertex="1" parent="1">
          <mxGeometry x="380" y="200" width="40" height="30" as="geometry" />
        </mxCell>
        <mxCell id="qZxP8vvQeVrQ0ccROyGc-24" style="rounded=0;orthogonalLoop=1;jettySize=auto;html=1;exitX=0;exitY=0.5;exitDx=0;exitDy=0;entryX=1;entryY=0.5;entryDx=0;entryDy=0;endArrow=none;endFill=0;" edge="1" parent="1" source="qZxP8vvQeVrQ0ccROyGc-17" target="qZxP8vvQeVrQ0ccROyGc-1">
          <mxGeometry relative="1" as="geometry" />
        </mxCell>
        <mxCell id="qZxP8vvQeVrQ0ccROyGc-73" value="&lt;b&gt;&lt;font style=&quot;font-size: 16px;&quot;&gt;0:N&lt;/font&gt;&lt;/b&gt;" style="edgeLabel;html=1;align=center;verticalAlign=middle;resizable=0;points=[];" vertex="1" connectable="0" parent="qZxP8vvQeVrQ0ccROyGc-24">
          <mxGeometry x="-0.25" relative="1" as="geometry">
            <mxPoint as="offset" />
          </mxGeometry>
        </mxCell>
        <mxCell id="qZxP8vvQeVrQ0ccROyGc-25" style="rounded=0;orthogonalLoop=1;jettySize=auto;html=1;exitX=1;exitY=0.5;exitDx=0;exitDy=0;entryX=0;entryY=0.5;entryDx=0;entryDy=0;endArrow=none;endFill=0;" edge="1" parent="1" source="qZxP8vvQeVrQ0ccROyGc-17" target="qZxP8vvQeVrQ0ccROyGc-3">
          <mxGeometry relative="1" as="geometry" />
        </mxCell>
        <mxCell id="qZxP8vvQeVrQ0ccROyGc-74" value="&lt;b&gt;&lt;font style=&quot;font-size: 16px;&quot;&gt;0:M&lt;/font&gt;&lt;/b&gt;" style="edgeLabel;html=1;align=center;verticalAlign=middle;resizable=0;points=[];" vertex="1" connectable="0" parent="qZxP8vvQeVrQ0ccROyGc-25">
          <mxGeometry x="-0.1304" y="1" relative="1" as="geometry">
            <mxPoint as="offset" />
          </mxGeometry>
        </mxCell>
        <mxCell id="qZxP8vvQeVrQ0ccROyGc-17" value="Atendimento" style="shape=rhombus;perimeter=rhombusPerimeter;whiteSpace=wrap;html=1;align=center;" vertex="1" parent="1">
          <mxGeometry x="514" y="90" width="120" height="60" as="geometry" />
        </mxCell>
        <mxCell id="qZxP8vvQeVrQ0ccROyGc-30" style="rounded=0;orthogonalLoop=1;jettySize=auto;html=1;exitX=0;exitY=0.5;exitDx=0;exitDy=0;entryX=1;entryY=0.5;entryDx=0;entryDy=0;endArrow=none;endFill=0;" edge="1" parent="1" source="qZxP8vvQeVrQ0ccROyGc-19" target="qZxP8vvQeVrQ0ccROyGc-6">
          <mxGeometry relative="1" as="geometry" />
        </mxCell>
        <mxCell id="qZxP8vvQeVrQ0ccROyGc-82" value="&lt;b&gt;&lt;font style=&quot;font-size: 16px;&quot;&gt;1:1&lt;/font&gt;&lt;/b&gt;" style="edgeLabel;html=1;align=center;verticalAlign=middle;resizable=0;points=[];" vertex="1" connectable="0" parent="qZxP8vvQeVrQ0ccROyGc-30">
          <mxGeometry x="-0.2" relative="1" as="geometry">
            <mxPoint as="offset" />
          </mxGeometry>
        </mxCell>
        <mxCell id="qZxP8vvQeVrQ0ccROyGc-31" style="rounded=0;orthogonalLoop=1;jettySize=auto;html=1;exitX=1;exitY=0.5;exitDx=0;exitDy=0;entryX=0;entryY=0.5;entryDx=0;entryDy=0;endArrow=none;endFill=0;shape=link;" edge="1" parent="1" source="qZxP8vvQeVrQ0ccROyGc-19" target="qZxP8vvQeVrQ0ccROyGc-7">
          <mxGeometry relative="1" as="geometry" />
        </mxCell>
        <mxCell id="qZxP8vvQeVrQ0ccROyGc-77" value="&lt;b&gt;&lt;font style=&quot;font-size: 16px;&quot;&gt;0:1&lt;/font&gt;&lt;/b&gt;" style="edgeLabel;html=1;align=center;verticalAlign=middle;resizable=0;points=[];" vertex="1" connectable="0" parent="qZxP8vvQeVrQ0ccROyGc-31">
          <mxGeometry x="0.2247" y="6" relative="1" as="geometry">
            <mxPoint as="offset" />
          </mxGeometry>
        </mxCell>
        <mxCell id="qZxP8vvQeVrQ0ccROyGc-19" value="Envolvimento" style="shape=rhombus;perimeter=rhombusPerimeter;whiteSpace=wrap;html=1;align=center;" vertex="1" parent="1">
          <mxGeometry x="200" y="440" width="120" height="60" as="geometry" />
        </mxCell>
        <mxCell id="qZxP8vvQeVrQ0ccROyGc-28" style="rounded=0;orthogonalLoop=1;jettySize=auto;html=1;exitX=0.5;exitY=0;exitDx=0;exitDy=0;entryX=0.5;entryY=1;entryDx=0;entryDy=0;endArrow=none;endFill=0;shape=link;" edge="1" parent="1" source="qZxP8vvQeVrQ0ccROyGc-20" target="qZxP8vvQeVrQ0ccROyGc-4">
          <mxGeometry relative="1" as="geometry" />
        </mxCell>
        <mxCell id="qZxP8vvQeVrQ0ccROyGc-75" value="&lt;b&gt;&lt;font style=&quot;font-size: 16px;&quot;&gt;1:1&lt;/font&gt;&lt;/b&gt;" style="edgeLabel;html=1;align=center;verticalAlign=middle;resizable=0;points=[];" vertex="1" connectable="0" parent="qZxP8vvQeVrQ0ccROyGc-28">
          <mxGeometry x="0.0667" relative="1" as="geometry">
            <mxPoint as="offset" />
          </mxGeometry>
        </mxCell>
        <mxCell id="qZxP8vvQeVrQ0ccROyGc-107" style="rounded=0;orthogonalLoop=1;jettySize=auto;html=1;exitX=0;exitY=0.5;exitDx=0;exitDy=0;entryX=1;entryY=0.5;entryDx=0;entryDy=0;endArrow=none;endFill=0;" edge="1" parent="1" source="qZxP8vvQeVrQ0ccROyGc-20" target="qZxP8vvQeVrQ0ccROyGc-106">
          <mxGeometry relative="1" as="geometry" />
        </mxCell>
        <mxCell id="qZxP8vvQeVrQ0ccROyGc-20" value="Anuncia" style="shape=rhombus;perimeter=rhombusPerimeter;whiteSpace=wrap;html=1;align=center;" vertex="1" parent="1">
          <mxGeometry x="60" y="400" width="120" height="60" as="geometry" />
        </mxCell>
        <mxCell id="qZxP8vvQeVrQ0ccROyGc-22" style="rounded=0;orthogonalLoop=1;jettySize=auto;html=1;exitX=0;exitY=0.5;exitDx=0;exitDy=0;entryX=1;entryY=0.5;entryDx=0;entryDy=0;endArrow=none;endFill=0;shape=link;" edge="1" parent="1" source="qZxP8vvQeVrQ0ccROyGc-21" target="qZxP8vvQeVrQ0ccROyGc-2">
          <mxGeometry relative="1" as="geometry" />
        </mxCell>
        <mxCell id="qZxP8vvQeVrQ0ccROyGc-70" value="&lt;b&gt;&lt;font style=&quot;font-size: 16px;&quot;&gt;0:1&lt;/font&gt;&lt;/b&gt;" style="edgeLabel;html=1;align=center;verticalAlign=middle;resizable=0;points=[];" vertex="1" connectable="0" parent="qZxP8vvQeVrQ0ccROyGc-22">
          <mxGeometry x="-0.0667" relative="1" as="geometry">
            <mxPoint as="offset" />
          </mxGeometry>
        </mxCell>
        <mxCell id="qZxP8vvQeVrQ0ccROyGc-21" value="Cadastro" style="shape=rhombus;perimeter=rhombusPerimeter;whiteSpace=wrap;html=1;align=center;" vertex="1" parent="1">
          <mxGeometry x="180" y="90" width="120" height="60" as="geometry" />
        </mxCell>
        <mxCell id="qZxP8vvQeVrQ0ccROyGc-32" style="rounded=0;orthogonalLoop=1;jettySize=auto;html=1;exitX=1;exitY=0.5;exitDx=0;exitDy=0;entryX=0;entryY=0.5;entryDx=0;entryDy=0;endArrow=none;endFill=0;" edge="1" parent="1" source="qZxP8vvQeVrQ0ccROyGc-27" target="qZxP8vvQeVrQ0ccROyGc-8">
          <mxGeometry relative="1" as="geometry" />
        </mxCell>
        <mxCell id="qZxP8vvQeVrQ0ccROyGc-80" value="&lt;font style=&quot;font-size: 16px;&quot;&gt;&lt;b&gt;0:M&lt;/b&gt;&lt;/font&gt;" style="edgeLabel;html=1;align=center;verticalAlign=middle;resizable=0;points=[];" vertex="1" connectable="0" parent="qZxP8vvQeVrQ0ccROyGc-32">
          <mxGeometry y="-1" relative="1" as="geometry">
            <mxPoint as="offset" />
          </mxGeometry>
        </mxCell>
        <mxCell id="qZxP8vvQeVrQ0ccROyGc-33" style="rounded=0;orthogonalLoop=1;jettySize=auto;html=1;exitX=0;exitY=0.5;exitDx=0;exitDy=0;entryX=1;entryY=0.5;entryDx=0;entryDy=0;endArrow=none;endFill=0;" edge="1" parent="1" source="qZxP8vvQeVrQ0ccROyGc-27" target="qZxP8vvQeVrQ0ccROyGc-7">
          <mxGeometry relative="1" as="geometry" />
        </mxCell>
        <mxCell id="qZxP8vvQeVrQ0ccROyGc-79" value="&lt;b&gt;&lt;font style=&quot;font-size: 16px;&quot;&gt;0:N&lt;/font&gt;&lt;/b&gt;" style="edgeLabel;html=1;align=center;verticalAlign=middle;resizable=0;points=[];" vertex="1" connectable="0" parent="qZxP8vvQeVrQ0ccROyGc-33">
          <mxGeometry x="0.016" y="2" relative="1" as="geometry">
            <mxPoint as="offset" />
          </mxGeometry>
        </mxCell>
        <mxCell id="qZxP8vvQeVrQ0ccROyGc-27" value="Solicitação" style="shape=rhombus;perimeter=rhombusPerimeter;whiteSpace=wrap;html=1;align=center;" vertex="1" parent="1">
          <mxGeometry x="490" y="330" width="120" height="60" as="geometry" />
        </mxCell>
        <mxCell id="qZxP8vvQeVrQ0ccROyGc-87" style="rounded=0;orthogonalLoop=1;jettySize=auto;html=1;exitX=0.5;exitY=1;exitDx=0;exitDy=0;entryX=0.5;entryY=0;entryDx=0;entryDy=0;endArrow=none;endFill=0;" edge="1" parent="1" source="qZxP8vvQeVrQ0ccROyGc-36" target="qZxP8vvQeVrQ0ccROyGc-86">
          <mxGeometry relative="1" as="geometry" />
        </mxCell>
        <mxCell id="qZxP8vvQeVrQ0ccROyGc-103" style="rounded=0;orthogonalLoop=1;jettySize=auto;html=1;exitX=0.5;exitY=0;exitDx=0;exitDy=0;entryX=0.5;entryY=1;entryDx=0;entryDy=0;endArrow=none;endFill=0;" edge="1" parent="1" source="qZxP8vvQeVrQ0ccROyGc-36" target="qZxP8vvQeVrQ0ccROyGc-91">
          <mxGeometry relative="1" as="geometry" />
        </mxCell>
        <mxCell id="qZxP8vvQeVrQ0ccROyGc-104" style="rounded=0;orthogonalLoop=1;jettySize=auto;html=1;exitX=1;exitY=0.25;exitDx=0;exitDy=0;entryX=0;entryY=0.5;entryDx=0;entryDy=0;endArrow=none;endFill=0;" edge="1" parent="1" source="qZxP8vvQeVrQ0ccROyGc-36" target="qZxP8vvQeVrQ0ccROyGc-93">
          <mxGeometry relative="1" as="geometry" />
        </mxCell>
        <mxCell id="qZxP8vvQeVrQ0ccROyGc-105" style="rounded=0;orthogonalLoop=1;jettySize=auto;html=1;exitX=1;exitY=0.75;exitDx=0;exitDy=0;entryX=0;entryY=0.5;entryDx=0;entryDy=0;endArrow=none;endFill=0;" edge="1" parent="1" source="qZxP8vvQeVrQ0ccROyGc-36" target="qZxP8vvQeVrQ0ccROyGc-92">
          <mxGeometry relative="1" as="geometry" />
        </mxCell>
        <mxCell id="qZxP8vvQeVrQ0ccROyGc-36" value="Pagamento" style="shape=ext;margin=3;double=1;whiteSpace=wrap;html=1;align=center;" vertex="1" parent="1">
          <mxGeometry x="650" y="520" width="100" height="40" as="geometry" />
        </mxCell>
        <mxCell id="qZxP8vvQeVrQ0ccROyGc-38" style="rounded=0;orthogonalLoop=1;jettySize=auto;html=1;exitX=1;exitY=0.5;exitDx=0;exitDy=0;entryX=0;entryY=0.5;entryDx=0;entryDy=0;endArrow=none;endFill=0;shape=link;" edge="1" parent="1" source="qZxP8vvQeVrQ0ccROyGc-37" target="qZxP8vvQeVrQ0ccROyGc-36">
          <mxGeometry relative="1" as="geometry" />
        </mxCell>
        <mxCell id="qZxP8vvQeVrQ0ccROyGc-81" value="&lt;b&gt;&lt;font style=&quot;font-size: 16px;&quot;&gt;1:1&lt;/font&gt;&lt;/b&gt;" style="edgeLabel;html=1;align=center;verticalAlign=middle;resizable=0;points=[];" vertex="1" connectable="0" parent="qZxP8vvQeVrQ0ccROyGc-38">
          <mxGeometry x="0.0646" y="-1" relative="1" as="geometry">
            <mxPoint as="offset" />
          </mxGeometry>
        </mxCell>
        <mxCell id="qZxP8vvQeVrQ0ccROyGc-37" value="Gera" style="shape=rhombus;double=1;perimeter=rhombusPerimeter;whiteSpace=wrap;html=1;align=center;" vertex="1" parent="1">
          <mxGeometry x="490" y="440" width="120" height="60" as="geometry" />
        </mxCell>
        <mxCell id="qZxP8vvQeVrQ0ccROyGc-43" style="rounded=0;orthogonalLoop=1;jettySize=auto;html=1;exitX=0.5;exitY=1;exitDx=0;exitDy=0;entryX=0.5;entryY=0;entryDx=0;entryDy=0;endArrow=none;endFill=0;" edge="1" parent="1" source="qZxP8vvQeVrQ0ccROyGc-39" target="qZxP8vvQeVrQ0ccROyGc-1">
          <mxGeometry relative="1" as="geometry" />
        </mxCell>
        <mxCell id="qZxP8vvQeVrQ0ccROyGc-39" value="telefone" style="ellipse;shape=doubleEllipse;margin=3;whiteSpace=wrap;html=1;align=center;" vertex="1" parent="1">
          <mxGeometry x="290" y="-10" width="100" height="40" as="geometry" />
        </mxCell>
        <mxCell id="qZxP8vvQeVrQ0ccROyGc-40" value="email" style="ellipse;shape=doubleEllipse;margin=3;whiteSpace=wrap;html=1;align=center;" vertex="1" parent="1">
          <mxGeometry x="30" y="170" width="100" height="40" as="geometry" />
        </mxCell>
        <mxCell id="qZxP8vvQeVrQ0ccROyGc-41" value="tipoProblema" style="ellipse;shape=doubleEllipse;margin=3;whiteSpace=wrap;html=1;align=center;" vertex="1" parent="1">
          <mxGeometry x="680" y="170" width="100" height="40" as="geometry" />
        </mxCell>
        <mxCell id="qZxP8vvQeVrQ0ccROyGc-45" value="senha" style="ellipse;whiteSpace=wrap;html=1;align=center;" vertex="1" parent="1">
          <mxGeometry x="100" y="40" width="100" height="40" as="geometry" />
        </mxCell>
        <mxCell id="qZxP8vvQeVrQ0ccROyGc-47" value="status" style="ellipse;whiteSpace=wrap;html=1;align=center;" vertex="1" parent="1">
          <mxGeometry x="727" y="40" width="100" height="40" as="geometry" />
        </mxCell>
        <mxCell id="qZxP8vvQeVrQ0ccROyGc-48" value="dataNasc" style="ellipse;whiteSpace=wrap;html=1;align=center;" vertex="1" parent="1">
          <mxGeometry x="460" y="40" width="100" height="40" as="geometry" />
        </mxCell>
        <mxCell id="qZxP8vvQeVrQ0ccROyGc-57" style="rounded=0;orthogonalLoop=1;jettySize=auto;html=1;exitX=0.5;exitY=1;exitDx=0;exitDy=0;entryX=0.5;entryY=0;entryDx=0;entryDy=0;endArrow=none;endFill=0;" edge="1" parent="1" source="qZxP8vvQeVrQ0ccROyGc-49" target="qZxP8vvQeVrQ0ccROyGc-7">
          <mxGeometry relative="1" as="geometry" />
        </mxCell>
        <mxCell id="qZxP8vvQeVrQ0ccROyGc-49" value="período" style="ellipse;whiteSpace=wrap;html=1;align=center;" vertex="1" parent="1">
          <mxGeometry x="350" y="300" width="100" height="40" as="geometry" />
        </mxCell>
        <mxCell id="qZxP8vvQeVrQ0ccROyGc-53" style="rounded=0;orthogonalLoop=1;jettySize=auto;html=1;exitX=0.5;exitY=0;exitDx=0;exitDy=0;entryX=0.25;entryY=1;entryDx=0;entryDy=0;endArrow=none;endFill=0;" edge="1" parent="1" source="qZxP8vvQeVrQ0ccROyGc-50" target="qZxP8vvQeVrQ0ccROyGc-1">
          <mxGeometry relative="1" as="geometry" />
        </mxCell>
        <mxCell id="qZxP8vvQeVrQ0ccROyGc-50" value="nome" style="ellipse;whiteSpace=wrap;html=1;align=center;" vertex="1" parent="1">
          <mxGeometry x="280" y="150" width="100" height="40" as="geometry" />
        </mxCell>
        <mxCell id="qZxP8vvQeVrQ0ccROyGc-51" value="endereco" style="ellipse;whiteSpace=wrap;html=1;align=center;" vertex="1" parent="1">
          <mxGeometry x="414" y="150" width="100" height="40" as="geometry" />
        </mxCell>
        <mxCell id="qZxP8vvQeVrQ0ccROyGc-59" value="CPF" style="ellipse;whiteSpace=wrap;html=1;align=center;fontStyle=4;" vertex="1" parent="1">
          <mxGeometry x="240" y="40" width="100" height="40" as="geometry" />
        </mxCell>
        <mxCell id="qZxP8vvQeVrQ0ccROyGc-60" value="codigo" style="ellipse;whiteSpace=wrap;html=1;align=center;fontStyle=4;" vertex="1" parent="1">
          <mxGeometry x="70" y="590" width="100" height="40" as="geometry" />
        </mxCell>
        <mxCell id="qZxP8vvQeVrQ0ccROyGc-65" style="rounded=0;orthogonalLoop=1;jettySize=auto;html=1;exitX=0.5;exitY=1;exitDx=0;exitDy=0;entryX=0.25;entryY=0;entryDx=0;entryDy=0;endArrow=none;endFill=0;" edge="1" parent="1" source="qZxP8vvQeVrQ0ccROyGc-61" target="qZxP8vvQeVrQ0ccROyGc-3">
          <mxGeometry relative="1" as="geometry" />
        </mxCell>
        <mxCell id="qZxP8vvQeVrQ0ccROyGc-61" value="protocolo" style="ellipse;whiteSpace=wrap;html=1;align=center;fontStyle=4;" vertex="1" parent="1">
          <mxGeometry x="620" y="40" width="100" height="40" as="geometry" />
        </mxCell>
        <mxCell id="qZxP8vvQeVrQ0ccROyGc-67" style="rounded=0;orthogonalLoop=1;jettySize=auto;html=1;exitX=0.5;exitY=1;exitDx=0;exitDy=0;entryX=0.25;entryY=0;entryDx=0;entryDy=0;endArrow=none;endFill=0;" edge="1" parent="1" source="qZxP8vvQeVrQ0ccROyGc-62" target="qZxP8vvQeVrQ0ccROyGc-2">
          <mxGeometry relative="1" as="geometry" />
        </mxCell>
        <mxCell id="qZxP8vvQeVrQ0ccROyGc-62" value="codigo&lt;span style=&quot;color: rgba(0, 0, 0, 0); font-family: monospace; font-size: 0px; text-align: start; text-wrap-mode: nowrap;&quot;&gt;%3CmxGraphModel%3E%3Croot%3E%3CmxCell%20id%3D%220%22%2F%3E%3CmxCell%20id%3D%221%22%20parent%3D%220%22%2F%3E%3CmxCell%20id%3D%222%22%20value%3D%22CPF%22%20style%3D%22ellipse%3BwhiteSpace%3Dwrap%3Bhtml%3D1%3Balign%3Dcenter%3BfontStyle%3D4%3B%22%20vertex%3D%221%22%20parent%3D%221%22%3E%3CmxGeometry%20x%3D%22370%22%20y%3D%22450%22%20width%3D%22100%22%20height%3D%2240%22%20as%3D%22geometry%22%2F%3E%3C%2FmxCell%3E%3C%2Froot%3E%3C%2FmxGraphModel%3E&lt;/span&gt;&lt;span style=&quot;color: rgba(0, 0, 0, 0); font-family: monospace; font-size: 0px; text-align: start; text-wrap-mode: nowrap;&quot;&gt;%3CmxGraphModel%3E%3Croot%3E%3CmxCell%20id%3D%220%22%2F%3E%3CmxCell%20id%3D%221%22%20parent%3D%220%22%2F%3E%3CmxCell%20id%3D%222%22%20value%3D%22CPF%22%20style%3D%22ellipse%3BwhiteSpace%3Dwrap%3Bhtml%3D1%3Balign%3Dcenter%3BfontStyle%3D4%3B%22%20vertex%3D%221%22%20parent%3D%221%22%3E%3CmxGeometry%20x%3D%22370%22%20y%3D%22450%22%20width%3D%22100%22%20height%3D%2240%22%20as%3D%22geometry%22%2F%3E%3C%2FmxCell%3E%3C%2Froot%3E%3C%2FmxGraphModel%3E&lt;/span&gt;&lt;span style=&quot;color: rgba(0, 0, 0, 0); font-family: monospace; font-size: 0px; text-align: start; text-wrap-mode: nowrap;&quot;&gt;%3CmxGraphModel%3E%3Croot%3E%3CmxCell%20id%3D%220%22%2F%3E%3CmxCell%20id%3D%221%22%20parent%3D%220%22%2F%3E%3CmxCell%20id%3D%222%22%20value%3D%22CPF%22%20style%3D%22ellipse%3BwhiteSpace%3Dwrap%3Bhtml%3D1%3Balign%3Dcenter%3BfontStyle%3D4%3B%22%20vertex%3D%221%22%20parent%3D%221%22%3E%3CmxGeometry%20x%3D%22370%22%20y%3D%22450%22%20width%3D%22100%22%20height%3D%2240%22%20as%3D%22geometry%22%2F%3E%3C%2FmxCell%3E%3C%2Froot%3E%3C%2FmxGraphModel%3E&lt;/span&gt;" style="ellipse;whiteSpace=wrap;html=1;align=center;fontStyle=4;" vertex="1" parent="1">
          <mxGeometry x="-20" y="40" width="100" height="40" as="geometry" />
        </mxCell>
        <mxCell id="qZxP8vvQeVrQ0ccROyGc-68" value="idade" style="ellipse;whiteSpace=wrap;html=1;align=center;dashed=1;" vertex="1" parent="1">
          <mxGeometry x="400" y="-10" width="100" height="40" as="geometry" />
        </mxCell>
        <mxCell id="qZxP8vvQeVrQ0ccROyGc-69" style="rounded=0;orthogonalLoop=1;jettySize=auto;html=1;exitX=0.5;exitY=1;exitDx=0;exitDy=0;entryX=0.62;entryY=-0.025;entryDx=0;entryDy=0;entryPerimeter=0;endArrow=none;endFill=0;" edge="1" parent="1" source="qZxP8vvQeVrQ0ccROyGc-68" target="qZxP8vvQeVrQ0ccROyGc-1">
          <mxGeometry relative="1" as="geometry" />
        </mxCell>
        <mxCell id="qZxP8vvQeVrQ0ccROyGc-84" value="codigo" style="ellipse;whiteSpace=wrap;html=1;align=center;fontStyle=4;" vertex="1" parent="1">
          <mxGeometry x="350" y="440" width="100" height="40" as="geometry" />
        </mxCell>
        <mxCell id="qZxP8vvQeVrQ0ccROyGc-86" value="&lt;span style=&quot;border-bottom: 1px dotted&quot;&gt;id_pagamento&lt;/span&gt;" style="ellipse;whiteSpace=wrap;html=1;align=center;" vertex="1" parent="1">
          <mxGeometry x="650" y="585" width="100" height="40" as="geometry" />
        </mxCell>
        <mxCell id="qZxP8vvQeVrQ0ccROyGc-89" value="status" style="ellipse;whiteSpace=wrap;html=1;align=center;" vertex="1" parent="1">
          <mxGeometry x="240" y="300" width="100" height="40" as="geometry" />
        </mxCell>
        <mxCell id="qZxP8vvQeVrQ0ccROyGc-90" value="contrato" style="ellipse;whiteSpace=wrap;html=1;align=center;" vertex="1" parent="1">
          <mxGeometry x="220" y="360" width="100" height="40" as="geometry" />
        </mxCell>
        <mxCell id="qZxP8vvQeVrQ0ccROyGc-91" value="status" style="ellipse;whiteSpace=wrap;html=1;align=center;" vertex="1" parent="1">
          <mxGeometry x="650" y="460" width="100" height="40" as="geometry" />
        </mxCell>
        <mxCell id="qZxP8vvQeVrQ0ccROyGc-92" value="metodoPagamento" style="ellipse;whiteSpace=wrap;html=1;align=center;" vertex="1" parent="1">
          <mxGeometry x="780" y="540" width="100" height="40" as="geometry" />
        </mxCell>
        <mxCell id="qZxP8vvQeVrQ0ccROyGc-93" value="valor" style="ellipse;whiteSpace=wrap;html=1;align=center;" vertex="1" parent="1">
          <mxGeometry x="780" y="490" width="100" height="40" as="geometry" />
        </mxCell>
        <mxCell id="qZxP8vvQeVrQ0ccROyGc-94" value="nicho" style="ellipse;whiteSpace=wrap;html=1;align=center;" vertex="1" parent="1">
          <mxGeometry x="-40" y="570" width="100" height="40" as="geometry" />
        </mxCell>
        <mxCell id="qZxP8vvQeVrQ0ccROyGc-95" value="nome" style="ellipse;whiteSpace=wrap;html=1;align=center;" vertex="1" parent="1">
          <mxGeometry x="-60" y="520" width="100" height="40" as="geometry" />
        </mxCell>
        <mxCell id="qZxP8vvQeVrQ0ccROyGc-96" value="descricao" style="ellipse;whiteSpace=wrap;html=1;align=center;" vertex="1" parent="1">
          <mxGeometry x="-30" y="470" width="100" height="40" as="geometry" />
        </mxCell>
        <mxCell id="qZxP8vvQeVrQ0ccROyGc-106" value="gerenciaAnuncio" style="ellipse;whiteSpace=wrap;html=1;align=center;" vertex="1" parent="1">
          <mxGeometry x="-60" y="410" width="100" height="40" as="geometry" />
        </mxCell>
      </root>
    </mxGraphModel>
  </diagram>
</mxfile>
